<mxfile host="65bd71144e">
    <diagram id="BOlVKOG5GtlqkJpbERyZ" name="第 1 页">
        <mxGraphModel dx="808" dy="591" grid="1" gridSize="10" guides="1" tooltips="1" connect="1" arrows="1" fold="1" page="1" pageScale="1" pageWidth="827" pageHeight="1169" math="0" shadow="0">
            <root>
                <mxCell id="0"/>
                <mxCell id="1" parent="0"/>
                <mxCell id="12" value="模块逻辑图" style="swimlane;startSize=20;horizontal=0;childLayout=treeLayout;horizontalTree=1;resizable=0;containerType=tree;fontSize=12;strokeWidth=1;" vertex="1" parent="1">
                    <mxGeometry x="80" y="50" width="460" height="322" as="geometry"/>
                </mxCell>
                <mxCell id="13" value="main.js" style="whiteSpace=wrap;html=1;strokeWidth=1;" vertex="1" parent="12">
                    <mxGeometry x="40" y="180.75" width="100" height="40" as="geometry"/>
                </mxCell>
                <mxCell id="14" value="config" style="whiteSpace=wrap;html=1;strokeWidth=1;" vertex="1" parent="12">
                    <mxGeometry x="190" y="261.5" width="100" height="40" as="geometry"/>
                </mxCell>
                <mxCell id="15" value="" style="edgeStyle=elbowEdgeStyle;elbow=vertical;html=1;rounded=1;curved=0;sourcePerimeterSpacing=0;targetPerimeterSpacing=0;startSize=6;endSize=6;" edge="1" parent="12" source="13" target="14">
                    <mxGeometry relative="1" as="geometry"/>
                </mxCell>
                <mxCell id="16" value="app" style="whiteSpace=wrap;html=1;strokeWidth=1;" vertex="1" parent="12">
                    <mxGeometry x="190" y="100" width="100" height="40" as="geometry"/>
                </mxCell>
                <mxCell id="17" value="" style="edgeStyle=elbowEdgeStyle;elbow=vertical;html=1;rounded=1;curved=0;sourcePerimeterSpacing=0;targetPerimeterSpacing=0;startSize=6;endSize=6;" edge="1" parent="12" source="13" target="16">
                    <mxGeometry relative="1" as="geometry"/>
                </mxCell>
                <mxCell id="18" value="" style="edgeStyle=elbowEdgeStyle;elbow=vertical;html=1;rounded=1;curved=0;sourcePerimeterSpacing=0;targetPerimeterSpacing=0;startSize=6;endSize=6;" edge="1" target="19" source="14" parent="12">
                    <mxGeometry relative="1" as="geometry">
                        <mxPoint x="360" y="-30.75" as="sourcePoint"/>
                    </mxGeometry>
                </mxCell>
                <mxCell id="19" value="error&lt;br&gt;path&lt;br&gt;secret" style="whiteSpace=wrap;html=1;strokeWidth=1;" vertex="1" parent="12">
                    <mxGeometry x="340" y="261.5" width="100" height="40" as="geometry"/>
                </mxCell>
                <mxCell id="22" value="" style="edgeStyle=elbowEdgeStyle;elbow=vertical;html=1;rounded=1;curved=0;sourcePerimeterSpacing=0;targetPerimeterSpacing=0;startSize=6;endSize=6;" edge="1" target="23" source="16" parent="12">
                    <mxGeometry relative="1" as="geometry">
                        <mxPoint x="120" y="-40.74999999999997" as="sourcePoint"/>
                    </mxGeometry>
                </mxCell>
                <mxCell id="23" value="&lt;br&gt;" style="whiteSpace=wrap;html=1;strokeWidth=1;" vertex="1" parent="12">
                    <mxGeometry x="340" y="20" width="100" height="40" as="geometry"/>
                </mxCell>
                <mxCell id="24" value="" style="edgeStyle=elbowEdgeStyle;elbow=vertical;html=1;rounded=1;curved=0;sourcePerimeterSpacing=0;targetPerimeterSpacing=0;startSize=6;endSize=6;" edge="1" target="25" source="16" parent="12">
                    <mxGeometry relative="1" as="geometry">
                        <mxPoint x="320" y="-61.5" as="sourcePoint"/>
                    </mxGeometry>
                </mxCell>
                <mxCell id="25" value="router" style="whiteSpace=wrap;html=1;strokeWidth=1;" vertex="1" parent="12">
                    <mxGeometry x="340" y="100" width="100" height="40" as="geometry"/>
                </mxCell>
                <mxCell id="29" value="" style="edgeStyle=elbowEdgeStyle;elbow=vertical;html=1;rounded=1;curved=0;sourcePerimeterSpacing=0;targetPerimeterSpacing=0;startSize=6;endSize=6;" edge="1" target="30" source="16" parent="12">
                    <mxGeometry relative="1" as="geometry">
                        <mxPoint x="370" y="29.25" as="sourcePoint"/>
                    </mxGeometry>
                </mxCell>
                <mxCell id="30" value="app" style="whiteSpace=wrap;html=1;strokeWidth=1;" vertex="1" parent="12">
                    <mxGeometry x="340" y="180" width="100" height="40" as="geometry"/>
                </mxCell>
            </root>
        </mxGraphModel>
    </diagram>
</mxfile>